<!-- Generated by IcoMoon.io -->
<svg version="1.1" xmlns="http://www.w3.org/2000/svg" width="32" height="32" viewBox="0 0 32 32">
<title>cocktail</title>
<path fill="#f26522" d="M6.71 9.488l2.598-1.978-3.226 0.586c-0.010 0.115 0.029 0.378 0.179 0.726 0.147 0.342 0.323 0.573 0.448 0.666zM12.406 10.704c-0.685-0.816-1.382-1.584-2.032-2.234-0.077-0.077-0.141-0.17-0.189-0.266l-0.227 1.67-0.189 1.414c0.099 0.064 0.282 0.099 0.512 0.099 0.675-0.003 1.606-0.301 2.125-0.685zM9.235 11.235c0.048 0 0.090-0.006 0.125-0.013l0.477-3.6-2.874 2.195c0.17 0.499 1.504 1.418 2.272 1.418zM20.512 17.123c0.147-0.816 1.062-2.448 2.278-4.125 1.213-1.686 2.723-3.475 4.064-4.819 0.163-0.163 0.211-0.41 0.122-0.621s-0.298-0.352-0.525-0.352h-15.392c-0.23 0-0.438 0.141-0.525 0.352-0.090 0.214-0.038 0.458 0.122 0.621 1.341 1.338 2.842 3.133 4.048 4.819 1.206 1.677 2.125 3.312 2.298 4.134 0.323 1.443 0.416 3.914 0.413 5.99v3.552c0 3.117-6.938 2.061-5.674 3.322h14.022c1.261-1.258-5.667-0.205-5.667-3.322v-3.421c0-2.035 0.090-4.502 0.416-6.131zM19.085 23.12v4.624c0 0.15 0.061 0.298 0.166 0.403 0.032 0.032 0.358 0.346 0.973 0.707h-2.944c0.614-0.365 0.944-0.678 0.973-0.707 0.106-0.106 0.166-0.253 0.166-0.403v-4.624c-0.003-2.115 0.054-4.602-0.304-6.237-0.275-1.178-1.238-2.797-2.483-4.55-0.973-1.36-2.115-2.771-3.238-3.99l-0.624-0.637h13.939l-0.595 0.637c-1.123 1.216-2.272 2.627-3.251 3.987-1.251 1.754-2.218 3.37-2.47 4.57-0.355 1.789-0.307 4.15-0.307 6.221zM5.821 7.002c0.003 0.358 0.080 0.592 0.17 0.694l3.427-0.624-3.165-1.392c-0.256 0.227-0.435 0.768-0.432 1.322zM21.53 12.090c0.646-0.902 1.376-1.827 2.125-2.714h-9.808c0.746 0.88 1.469 1.811 2.118 2.717 0.963 1.354 1.645 2.483 2.083 3.408 0.234 0.074 0.474 0.109 0.714 0.109 0.23 0 0.454-0.035 0.678-0.096 0.426-0.925 1.11-2.045 2.090-3.424zM18.758 15.037c-0.061 0-0.122-0.010-0.182-0.032-0.115-0.234-0.291-0.525-0.531-0.87-0.17-0.234-0.358-0.474-0.547-0.704h2.518c-0.192 0.23-0.381 0.467-0.55 0.698-0.25 0.358-0.426 0.64-0.531 0.883-0.058 0.016-0.118 0.026-0.176 0.026zM8.355 3.398c-0.33 0.048-1.264 0.723-1.734 1.411-0.134 0.198-0.211 0.374-0.211 0.49l3.325 1.466-1.379-3.366zM14.045 5.926l-2.342 0.864h2.579c-0.026-0.358-0.109-0.675-0.237-0.864zM12.666 11.018c-0.627 0.477-1.67 0.784-2.387 0.784-0.342 0-0.595-0.064-0.771-0.192-0.080 0.026-0.17 0.042-0.272 0.042-0.886 0-2.49-1.002-2.682-1.776-0.384-0.211-0.685-0.848-0.803-1.267-0.077-0.266-0.096-0.477-0.054-0.637-0.179-0.198-0.278-0.534-0.282-0.966-0.003-0.592 0.179-1.302 0.592-1.645-0.016-0.218 0.077-0.48 0.278-0.781 0.477-0.694 1.584-1.594 2.112-1.594 0.010 0 0.019 0 0.029 0.003 0.31-0.381 0.97-0.522 1.523-0.522 0.426 0 0.941 0.083 1.261 0.31 0.086-0.048 0.189-0.077 0.301-0.077 0.362 0 0.864 0.266 1.152 0.755 0.48 0.045 0.96 0.598 1.101 0.771 0.307 0.387 0.605 0.941 0.566 1.389 0.211 0.262 0.333 0.694 0.362 1.174h0.573c-0.070-0.995-0.426-1.952-1.040-2.758-0.835-1.094-2.045-1.798-3.408-1.984-1.363-0.189-2.717 0.17-3.811 1.005-2.259 1.718-2.698 4.957-0.979 7.216 0.835 1.094 2.045 1.798 3.408 1.984 0.234 0.032 0.467 0.048 0.704 0.048 1.021 0 2.013-0.301 2.867-0.883-0.118-0.128-0.227-0.266-0.339-0.4zM13.437 4.486c-0.31-0.39-0.614-0.586-0.79-0.614l-1.987 2.867 3.254-1.203c0-0.275-0.182-0.675-0.477-1.050zM11.504 3.11c-0.054 0-0.093 0.010-0.118 0.032l-0.39 1.491-0.381 1.443 1.683-2.426c-0.198-0.33-0.557-0.541-0.794-0.541zM10.97 3.11c-0.192-0.141-0.592-0.234-1.027-0.234-0.547 0-1.024 0.147-1.203 0.368l1.13 2.755 0.211 0.509 0.474-1.805 0.416-1.594z"></path>
</svg>
