<!-- Generated by IcoMoon.io -->
<svg version="1.1" xmlns="http://www.w3.org/2000/svg" width="150" height="150" viewBox="0 0 150 150">
<title>guiter</title>
<path fill="#fff" d="M90.84 68.025c5.325 8.655 4.71 15.765-1.335 22.11-5.205 5.475-10.095 11.265-15.195 16.83-1.005 1.095-1.335 2.145-1.14 3.585 2.46 17.67-8.040 33.54-25.26 38.25-20.22 5.55-41.070-8.97-42.885-29.85-1.665-19.155 11.505-35.445 30.48-37.68 0.39-0.045 0.81-0.135 1.17-0.060 4.62 0.975 7.515-1.305 10.275-4.74 3.885-4.845 8.22-9.345 12.42-13.935 5.82-6.36 11.76-7.59 19.83-4.335 1.53 0.615 1.755 0.99 0.57 2.295-10.050 11.085-20.040 22.23-30.030 33.36-0.375 0.42-0.765 0.795-1.11 1.23-1.47 1.92-3.015 3.045-5.805 3.15-6 0.24-10.86 6.39-10.32 12.24 0.615 6.66 6.27 11.655 12.615 11.115 6.465-0.555 11.415-5.925 10.935-12.195-0.15-1.935 0.405-3.195 1.65-4.575 10.575-11.685 21.075-23.415 31.605-35.13 0.45-0.495 0.93-1.005 1.53-1.665zM34.335 109.725c0.135-5.7 4.83-10.29 10.38-9.9 1.455 0.105 2.295-0.285 3.225-1.305 15.87-17.7 31.77-35.385 47.67-53.070 5.955-6.615 11.88-13.245 17.82-19.86 0.615-0.69 1.32-1.245 0.885-2.43-1.020-2.76-0.39-5.295 1.5-7.47 1.11-1.275 0.54-1.86-0.735-1.995-1.62-0.18-2.535-0.96-2.49-2.52 0.015-1.2 0.75-2.1 2.025-2.265 1.605-0.195 2.535 0.615 2.835 2.16 0.135 0.675 0.435 1.44 1.125 1.2 0.855-0.3 1.635-1.080 1.755-2.040 0.090-0.72-0.69-0.915-1.365-0.96-1.605-0.12-2.445-1.005-2.355-2.625 0.060-1.29 0.855-2.055 2.085-2.16 1.44-0.135 2.415 0.525 2.64 2.070 0.105 0.735 0.495 1.59 1.29 1.23 0.72-0.315 1.47-1.125 1.68-1.86 0.24-0.855-0.72-0.96-1.425-1.035-1.455-0.18-2.37-1.020-2.37-2.46-0.015-1.32 0.825-2.265 2.145-2.415 1.455-0.165 2.415 0.645 2.715 2.070 0.33 1.65 1.080 1.71 2.505 1.065 3.96-1.785 7.44-0.42 10.395 2.25 2.91 2.625 4.47 5.955 3.18 9.945-0.555 1.725-0.105 2.31 1.545 2.49 1.365 0.15 2.175 0.99 2.13 2.355-0.030 1.2-0.645 2.1-1.935 2.34-1.5 0.285-2.43-0.45-2.85-1.83-0.225-0.765-0.3-1.785-1.35-1.44-0.75 0.24-1.515 1.035-1.605 1.89-0.090 0.915 0.825 0.9 1.53 1.035 1.365 0.27 2.31 0.99 2.205 2.565-0.090 1.29-0.84 2.055-2.040 2.235-1.5 0.24-2.37-0.54-2.7-1.98-0.165-0.705-0.42-1.605-1.23-1.38-0.885 0.24-1.68 1.14-1.815 2.010-0.105 0.72 0.855 0.915 1.605 1.005 1.455 0.18 2.34 1.035 2.25 2.52-0.060 1.2-0.81 2.085-2.040 2.28-1.5 0.24-2.43-0.57-2.775-1.95-0.405-1.665-0.93-2.055-2.235-0.63-1.785 1.935-4.125 2.55-6.66 2.19-1.23-0.18-2.025 0.165-2.85 1.095-21.84 24.33-43.665 48.645-65.535 72.93-1.065 1.17-1.035 2.265-0.87 3.645 0.72 5.76-3.75 10.965-9.54 11.205-5.685 0.21-10.485-4.5-10.35-10.2z"></path>
</svg>
