<!-- Generated by IcoMoon.io -->
<svg version="1.1" xmlns="http://www.w3.org/2000/svg" width="150" height="150" viewBox="0 0 150 150">
<title>microphone-alt</title>
<path fill="#fff" d="M130.68 58.71c-10.935-3.060-21.18-8.73-29.595-17.13-8.4-8.415-14.070-18.66-17.115-29.595-7.215 11.535-4.65 28.23 6.9 39.795 11.58 11.565 28.275 14.13 39.81 6.93zM84.915 109.935c-14.385 0-24.66 8.985-33.735 16.92-10.020 8.76-18.705 16.365-31.485 12.42-2.535-1.86-2.61-3.39-2.625-3.9-0.18-3.465 4.020-8.1 6.075-9.81 0.255-0.21 0.405-0.48 0.6-0.735 3.375 1.17 7.26 0.495 9.96-2.205l65.445-53.91c-5.415-2.295-10.575-5.625-15.075-10.125s-7.815-9.675-10.11-15.075l-53.895 65.475c-2.4 2.4-3.090 5.715-2.445 8.805-0.21 0.12-0.42 0.18-0.615 0.33-1.035 0.84-10.020 8.505-9.585 17.7 0.165 3.24 1.575 7.905 7.41 11.82l1.155 0.57c3.75 1.245 7.245 1.8 10.515 1.8 12.81 0 22.35-8.355 30.99-15.9 8.55-7.47 16.635-14.535 27.39-14.535 24.81 0 44.010 26.58 44.22 26.85 1.53 2.19 4.545 2.685 6.705 1.14 2.175-1.53 2.685-4.53 1.14-6.705-0.87-1.275-22.215-30.93-52.035-30.93zM131.73 10.95c-11.58-11.58-28.275-14.13-39.81-6.915 2.025 11.385 7.395 22.155 15.975 30.735 8.58 8.565 19.35 13.95 30.735 15.975 7.215-11.52 4.665-28.23-6.9-39.795z"></path>
</svg>
