<!-- Generated by IcoMoon.io -->
<svg version="1.1" xmlns="http://www.w3.org/2000/svg" width="150" height="150" viewBox="0 0 150 150">
<title>radio-mic</title>
<path fill="#fff" d="M108.075 81.84c0 14.595-14.16 29.235-28.305 29.235h-9.45c-14.16 0-28.305-14.655-28.305-29.235v-29.175h-9.45v29.175c0 19.5 18.915 38.925 37.77 38.925v19.5h-28.335v9.75h66.075v-9.75h-28.305v-19.5c18.915 0 37.77-19.425 37.77-38.925v-29.175h-9.45l-0.015 29.175zM79.71 0h-9.33c-9.66 0-17.595 7.425-18.765 16.935h46.92c-1.17-9.57-9.105-16.935-18.825-16.935zM51.45 81.93c0 10.71 8.43 19.41 18.945 19.41h9.33c10.5 0 18.99-8.805 18.99-19.41v-57.465h-47.265v57.465z"></path>
</svg>
