<!-- Generated by IcoMoon.io -->
<svg version="1.1" xmlns="http://www.w3.org/2000/svg" width="150" height="150" viewBox="0 0 150 150">
<title>retro-music-disk</title>
<path fill="#fff" d="M75.022 79.184c2.67 0.072 4.057-1.536 4.383-4.14-0.26-2.62-1.664-4.234-4.311-4.189-2.631 0.050-4.173 1.669-4.134 4.322 0.033 2.515 1.619 3.94 4.062 4.007zM75 0c-41.352 0-75 33.642-75 75s33.642 75 75 75 75-33.642 75-75-33.642-75-75-75zM40.004 53.893c3.366-6.699 8.462-11.629 15.293-14.718 0.978-0.442 2.178-0.503 2.852 0.635 0.729 1.227 0.282 2.46-0.79 3.123-5.853 3.62-10.263 8.705-14.497 13.983-0.525 0.658-1.271 1.172-2.177 0.824-0.951-0.359-0.929-1.266-0.962-2.349 0.061-0.342 0.028-0.989 0.282-1.498zM26.535 51.146c-0.575 1.028-1.277 1.995-1.995 2.935-0.586 0.763-1.326 1.509-2.393 1.106-1.072-0.404-1.050-1.46-1.061-2.415-0.028-1.476 0.497-2.791 1.177-4.051 6.218-11.474 15.171-20.173 26.706-26.236 0.105-0.056 0.21-0.116 0.326-0.144 1.929-0.481 4.339-2.564 5.682-0.017 1.503 2.846-1.796 3.416-3.427 4.294-10.722 5.781-19.101 13.878-25.015 24.529zM75.331 53.788c11.855 0.061 21.069 9.451 21.008 21.417-0.055 11.877-9.418 21.063-21.411 21.008-11.867-0.055-21.069-9.44-21.008-21.422 0.072-11.844 9.468-21.069 21.411-21.002zM93.664 108.189c1.111-1.061 2.211-2.161 3.449-3.062 3.985-2.896 6.992-6.715 10.092-10.451 0.851-1.022 1.769-2.758 3.399-1.575 1.315 0.956 0.856 2.664 0.26 3.952-1.779 3.841-4.703 6.793-7.809 9.567-2.299 2.056-4.659 4.057-7.445 4.427-1.321 0.017-2.205 0.005-2.575-0.945-0.287-0.741 0.105-1.415 0.63-1.913zM95.996 126.737c1.111-0.879 2.233-1.78 3.46-2.465 10.192-5.693 18.173-13.585 23.92-23.754 0.641-1.133 1.382-2.211 2.172-3.244 0.586-0.763 1.371-1.437 2.438-1.022 1.067 0.42 1.078 1.448 1.111 2.172-0.044 1.835-0.724 3.228-1.459 4.582-5.836 10.683-14.143 18.935-24.672 24.976-1.758 1.006-3.631 1.774-5.726 1.713-0.846-0.022-1.713-0.121-2.018-1.106-0.243-0.785 0.221-1.415 0.774-1.851z"></path>
</svg>
